<svg width="300" height="300" viewBox="0 0 300 300" fill="none" xmlns="http://www.w3.org/2000/svg">
<path d="M183.584 191.529C183.564 191.119 183.32 190.862 183.021 190.746C184.636 186.711 183.157 181.85 178.266 179.072C173.027 176.096 165.944 176.489 160.151 176.398C155.225 176.322 150.296 176.455 145.379 176.774C140.712 177.078 136.128 177.738 131.444 177.742C128.532 177.744 125.578 178.001 122.739 178.667C117.071 179.996 112.043 183.435 111.947 189.771C111.918 191.692 112.341 193.23 113.092 194.471C113.056 194.54 113.015 194.599 112.997 194.686C111.899 199.849 112.53 204.967 113.018 210.17L114.571 226.77C115.1 232.414 115.44 238.078 116.098 243.711C116.639 248.345 115.47 256.118 120.531 258.684C122.576 259.722 125.027 259.58 127.252 259.793C129.739 260.032 132.219 260.327 134.712 260.514C140.446 260.944 146.361 261.352 152.11 261.081C157.703 260.819 163.28 260.202 168.796 259.233C171.565 258.749 174.318 258.175 177.052 257.514C180.988 256.563 182.656 255.158 182.54 250.897C182.351 243.976 183.213 236.946 183.505 230.01C184.042 217.192 184.181 204.349 183.584 191.529Z" fill="black"/>
<path d="M179.046 253.788C177.194 255.01 175.308 256.405 172.563 256.872C170.337 257.25 168.099 257.558 165.867 257.903C160.824 258.685 155.735 259.171 150.636 259.357C145.327 259.551 140.009 259.374 134.719 258.902C132.013 258.66 129.314 258.341 126.625 257.956C124.13 257.601 120.706 257.468 119.337 254.877C117.516 251.427 118.166 246.432 117.754 242.664C117.177 237.378 116.857 232.066 116.36 226.77L114.97 211.917C114.481 206.69 113.677 201.417 114.546 196.207C119.373 200.436 129.738 199.291 135.374 199.367C142.766 199.466 150.158 199.299 157.536 198.872C163.781 198.51 171.183 198.782 177.087 196.393C179.157 195.554 180.743 194.305 181.843 192.837C181.115 193.808 182.062 198.69 182.098 199.999C182.17 202.653 182.219 205.307 182.244 207.96C182.293 213.264 182.245 218.569 182.102 223.872C181.896 231.448 182.262 251.664 179.046 253.788Z" fill="#FEFEFE"/>
<path d="M180.694 250.08C163.691 253.87 143.755 256.494 131.933 240.674C123.013 228.735 122.724 213.653 123.825 199.276C120.225 198.969 116.789 198.17 114.547 196.207C113.677 201.416 114.481 206.689 114.971 211.917L116.361 226.77C116.857 232.066 117.176 237.378 117.753 242.664C118.165 246.432 117.515 251.427 119.337 254.877C120.706 257.468 124.13 257.601 126.624 257.956C129.314 258.341 132.014 258.66 134.72 258.901C140.009 259.374 145.327 259.55 150.635 259.357C155.736 259.17 160.826 258.685 165.868 257.903C168.1 257.556 170.336 257.25 172.562 256.872C175.307 256.405 177.194 255.01 179.045 253.788C179.753 253.32 180.29 251.974 180.694 250.08Z" fill="#19A89D"/>
<path d="M179.98 192.492C175.51 196.986 166.933 196.449 161.077 196.856C148.988 197.695 136.842 197.842 124.737 197.254C121.735 197.107 117.846 197.22 115.555 194.882C113.041 192.315 113.34 187.982 115.206 185.207C117.792 181.363 122.07 180.078 126.478 179.744C140.835 178.659 155.496 177.16 169.871 178.617C176.04 179.243 187.36 185.071 179.98 192.492Z" fill="#19A89D"/>
<path d="M234.527 37.0083C244.518 28.8961 242.869 14.2792 231.273 8.58177C225.149 5.5717 217.638 6.42838 212.387 10.8053C210.156 12.6655 208.419 15.1042 207.479 17.8588C206.99 19.288 206.719 20.7897 206.67 22.2999C206.585 24.9738 207.26 27.9833 209.401 29.8196C211.374 31.5136 214.28 31.9043 216.49 30.4257C219.393 28.4847 218.983 24.6879 219.96 21.7614C220.888 18.9799 224.269 18.9257 226.602 19.9152C228.227 20.6048 229.124 22.2052 229.252 23.9216C229.399 25.8839 228.784 28.0702 227.73 29.7208C223.403 36.4932 213.673 36.5021 208.514 42.4511C205.858 45.5149 204.392 50.336 206.98 53.9009C209.879 57.8967 214.478 56.3241 215.969 52.1933C216.886 49.6521 217.068 47.508 219.163 45.4875C220.928 43.7843 223.304 42.7591 225.515 41.8182C228.701 40.4606 231.803 39.2207 234.527 37.0083Z" fill="black"/>
<path d="M215.946 46.6479C215.219 47.9027 214.973 49.2042 214.559 50.5762C214.065 54.5524 209.307 56.8743 207.411 49.8698C207.343 48.8168 207.527 47.8219 207.963 46.8835C211.517 36.7093 234.284 37.1147 230.867 22.9713C229.652 17.9467 223.102 14.7603 219.157 19.0177C218.065 20.1961 217.714 21.808 217.494 23.3796C217.321 24.6168 217.517 25.9483 217.044 27.1329C216.542 28.3885 215.038 29.0457 213.746 29.187C212.402 29.3332 210.707 28.9374 209.839 27.8247C208.763 26.4447 208.406 23.9826 208.473 22.2854C208.546 20.436 208.991 18.6075 209.773 16.929C211.316 13.6175 214.134 10.9767 217.507 9.58698C219.979 8.56811 222.7 8.24074 225.347 8.60088C234.015 9.77831 241.545 18.2677 239.125 27.2219C236.741 36.0455 228.58 37.8739 221.553 41.6662C219.354 42.8545 217.219 44.444 215.946 46.6479Z" fill="#19A89D"/>
<path d="M209.52 66.0892C210.6 64.5834 210.473 62.3133 209.631 60.7039C208.54 58.6157 206.674 58.369 204.559 58.9018C203.182 59.249 202.065 60.1318 201.46 61.4245C200.416 63.6536 201.287 66.2894 203.429 67.5039C205.495 68.6743 208.151 67.998 209.52 66.0892Z" fill="black"/>
<path d="M204.256 65.9177C202.913 65.1332 202.405 63.4543 203.128 62.0756C203.841 60.7138 205.644 60.0638 207.03 60.7793C208.387 61.4818 208.994 63.4257 208.248 64.7735C207.475 66.1724 205.643 66.7274 204.256 65.9177Z" fill="#19A89D"/>
<path d="M207.073 86.2465C206.859 82.216 205.791 78.1867 204.612 74.3601C203.241 69.911 201.318 65.6391 198.926 61.6484C198.898 61.6031 198.861 61.5822 198.83 61.5439C198.641 61.3166 199.641 57.4639 199.659 56.8445C199.701 55.3605 199.109 53.8437 199.807 52.5178C200.963 50.3213 200.109 47.2402 198.404 45.5463C197.415 44.5656 195.894 44.2678 194.787 45.0358C194.645 44.7674 194.492 44.5131 194.324 44.2961C193.435 43.1395 191.75 42.7248 190.581 43.5243C190.178 41.9205 189.436 40.3384 187.878 39.6348C186.297 38.9198 184.575 39.5754 183.916 41.0656C183.407 40.5492 182.784 40.1878 182.021 40.1056C179.66 39.8493 178.507 42.1265 179.197 44.0633C179.091 45.3329 179.115 46.8056 179.581 48.0019C176.702 47.7479 173.825 47.4938 170.945 47.2387C170.796 47.0526 170.57 46.9354 170.246 46.9871C168.753 47.2244 167.262 47.4605 165.772 47.6966C164.886 47.8383 164.629 48.889 165.405 49.3839C166.538 50.1045 167.67 50.8251 168.804 51.5467C169.099 51.7345 169.378 51.717 169.598 51.5863C171.752 51.8815 173.905 52.1768 176.058 52.4722C176.051 52.4827 176.041 52.4901 176.036 52.5006C174.82 54.347 175.914 56.482 176.955 58.1184C178.474 60.5029 180.306 62.6597 182.32 64.6376C184.035 71.1195 185.229 80.2554 179.018 83.4415C178.754 83.448 178.495 83.5613 178.31 83.7643C177.257 84.1901 176.025 84.4689 174.575 84.5594C167.917 84.9752 160.939 84.0256 154.258 83.627C153.933 83.4019 153.482 83.3838 153.173 83.6227C152.699 83.7686 152.559 84.3178 152.739 84.7655C150.998 93.7551 149.561 105.01 157.632 111.469C160.95 114.125 165.213 114.648 169.327 114.386C174.941 114.029 180.79 113.04 186.222 111.564C190.956 110.276 195.554 108.153 199.264 104.892C202.461 102.081 204.903 98.2272 206.181 94.1167C206.984 91.5292 207.213 88.8876 207.073 86.2465Z" fill="black"/>
<path d="M168.961 49.4718L168.3 49.0523C168.565 49.0093 168.83 48.9675 169.096 48.9257C169.051 49.1077 169.006 49.2898 168.961 49.4718Z" fill="#FEFEFE"/>
<path d="M195.551 46.8142C195.58 46.7853 195.613 46.7734 195.642 46.7377C196.928 45.1205 198.286 48.5604 198.489 49.3957C198.72 50.3446 198.735 51.4412 198.05 52.2201C197.248 53.1348 195.726 52.8997 195.812 51.5358C195.829 51.2786 195.742 51.0938 195.612 50.959C195.68 50.7813 195.74 50.6004 195.779 50.4138C195.992 49.3991 195.883 48.0577 195.551 46.8142Z" fill="#FEFEFE"/>
<path d="M191.005 45.5173C191.152 45.4745 191.296 45.3977 191.419 45.2354C192.931 43.2398 194.048 48.4593 194.071 49.2331C194.113 50.5973 193.086 52.0248 191.748 50.8527C190.972 50.1741 191.062 48.6517 191.052 47.7211C191.051 47.5411 190.995 47.4015 190.921 47.2811C191.03 46.7035 191.05 46.1019 191.005 45.5173Z" fill="#FEFEFE"/>
<path d="M185.528 42.0391C186.08 39.4497 188.322 42.2279 188.612 42.9334C188.828 43.458 188.954 44.0327 189.066 44.5853C189.22 45.3375 189.413 46.3931 189.161 47.1556C188.422 49.3864 186.604 47.9734 185.894 46.6466C185.916 46.3515 185.915 46.0576 185.882 45.7732C185.778 44.8351 185.518 43.669 185.044 42.6345C185.27 42.5398 185.461 42.3536 185.528 42.0391Z" fill="#FEFEFE"/>
<path d="M185.168 48.8426C185.631 49.4148 186.193 49.8807 186.843 50.112C186.758 50.3384 186.759 50.5992 186.921 50.8655C187.385 51.6257 186.218 51.7828 184.934 51.7509C184.868 50.9615 184.802 50.1721 184.736 49.3827C184.893 49.2175 185.041 49.0392 185.168 48.8426Z" fill="#FEFEFE"/>
<path d="M180.912 43.4529C180.906 43.4396 180.908 43.4281 180.9 43.4148C181.077 42.909 181.253 42.4032 181.428 41.8975C181.796 41.9758 182.165 42.0551 182.531 42.1334C182.986 42.4294 183.237 43.0651 183.435 43.545C183.76 44.3342 184.07 45.303 184.112 46.1795C183.979 46.372 183.926 46.6219 184.049 46.9177C184.053 46.9277 184.058 46.9389 184.063 46.9489C183.892 47.6413 183.408 48.2481 182.809 48.348C182.709 48.2824 182.588 48.2338 182.433 48.22C182.304 48.2083 182.175 48.1978 182.046 48.1861C181.937 48.1232 181.827 48.0524 181.717 47.9497C180.687 46.9901 180.908 45.2559 181.038 44.0072C181.06 43.7896 181.001 43.6102 180.912 43.4529Z" fill="#FEFEFE"/>
<path d="M170.703 49.9015C170.777 49.5958 170.853 49.2888 170.927 48.983C174.415 49.291 177.903 49.5989 181.39 49.9081C181.606 50.004 181.834 50.0891 182.091 50.1478C182.416 50.2223 182.72 50.24 183.008 50.2166C183.046 50.6768 183.085 51.137 183.123 51.5972C182.614 51.5387 182.261 51.4825 182.254 51.4817L178.1 50.9131C175.634 50.5766 173.168 50.2391 170.703 49.9015Z" fill="#FEFEFE"/>
<path d="M174.145 112.025C169.753 112.65 164.893 113.409 160.737 111.372C151.109 106.653 152.698 94.1495 154.373 85.4249C159.908 85.7233 165.443 86.0614 170.98 86.3017C173.348 86.4039 175.773 86.4531 177.998 85.8192C177.946 94.4184 179.906 102.634 183.771 110.338C180.6 111.081 177.362 111.567 174.145 112.025Z" fill="#19A89D"/>
<path d="M205.257 89.8504C203.964 99.3018 197.703 105.755 188.926 108.902C187.831 109.293 186.721 109.631 185.602 109.935C181.615 102.163 179.725 93.8449 179.873 85.134C180.431 84.8505 180.969 84.5087 181.483 84.0895C187.542 79.1408 185.762 70.5573 184.03 64.0261C184.009 63.9508 183.969 63.9015 183.936 63.8405C183.93 63.8192 183.917 63.7993 183.907 63.7793C183.881 63.7373 183.856 63.6919 183.824 63.6582C183.787 63.6053 183.767 63.5471 183.716 63.4973C181.845 61.6741 180.124 59.6928 178.704 57.4923C178.317 56.8897 177.807 56.2193 177.58 55.5413C177.265 54.6034 177.329 53.1608 178.582 52.9081C178.691 52.8866 178.794 52.8769 178.898 52.875C179.066 52.9018 179.233 52.9264 179.404 52.9565C180.702 53.3637 181.518 55.3178 181.968 56.3697C182.139 56.7724 182.494 56.9356 182.842 56.9294C182.968 56.9527 183.104 56.9515 183.252 56.9121C184.246 56.6395 185.2 56.8658 186.043 57.4396C186.992 58.0867 187.802 56.4912 186.864 55.8516C185.816 55.1377 184.569 54.9 183.344 55.0806C183.099 54.5403 182.828 54.0024 182.513 53.5033C183.598 53.674 184.683 53.7968 185.726 53.7656C187.888 53.7016 189.582 52.2243 188.52 50.1618C188.576 50.1453 188.628 50.1393 188.684 50.1182C188.945 50.0252 189.178 49.9029 189.387 49.7635C189.644 51.2274 190.28 52.597 191.84 53.0843C192.689 53.3501 193.487 53.1729 194.148 52.7474C194.599 53.9292 195.848 54.7514 197.177 54.6088C197.392 54.5854 197.593 54.5319 197.788 54.4651C198.111 56.7803 197.87 59.1162 197.067 61.3279C196.909 61.7599 197.079 62.1456 197.357 62.389C197.378 62.4734 197.395 62.5592 197.447 62.6454C202.323 70.7906 204.965 79.7487 205.323 89.1792C205.298 89.4038 205.288 89.6255 205.257 89.8504Z" fill="#FEFEFE"/>
<path d="M173.002 158.486C171.505 153.733 169.137 149.074 167.279 144.436C162.405 132.274 160.864 118.819 162.698 105.847C163.458 100.466 164.728 94.684 162.29 89.8278C160.538 86.3371 157.071 83.942 153.365 82.7132C149.658 81.4855 145.694 81.2975 141.791 81.2702C135.819 81.2281 129.584 81.5584 123.853 83.5685C118.945 85.2905 114.324 88.3757 111.47 92.7969C108.375 97.5916 106.059 102.655 104.54 108.196C101.904 117.811 101.514 127.937 102.291 137.835C102.969 146.476 104.514 155.125 107.859 163.12C111.202 171.117 116.432 178.46 123.527 183.441C131.855 189.29 142.6 191.584 152.59 189.642C157.717 188.646 162.688 186.543 166.659 183.148C170.626 179.754 173.532 175.012 174.264 169.842C174.813 165.974 174.173 162.202 173.002 158.486Z" fill="black"/>
<path d="M171.764 172.897C165.205 192.105 137.706 191.716 124.015 181.604C108.603 170.218 104.301 150.093 103.93 132.007C103.71 121.217 104.152 109.77 108.997 99.9037C111.211 95.3959 114.476 91.3597 118.555 88.4123C122.848 85.3111 128.132 84.2838 133.295 83.736C138.84 83.1461 144.689 82.3329 150.212 83.4615C153.178 84.0674 155.948 85.3794 158.123 87.5103C159.32 88.6856 160.267 90.091 160.954 91.6194C163.151 96.5064 161.481 101.933 160.79 106.974C160.211 111.197 160.002 115.47 160.167 119.728C160.507 128.439 162.392 137.045 165.712 145.104C169.254 153.706 175.042 163.301 171.764 172.897Z" fill="#19A89D"/>
<path d="M241.917 138.371C237.608 139.359 233.635 141.583 230.67 144.879C225.636 150.477 223.997 159.125 224.262 166.454C224.34 168.661 224.691 171.415 226.601 172.84C229.773 175.208 233.782 171.853 236.328 170.167C241.791 166.55 247.08 162.653 251.983 158.299C256.01 154.724 261.505 150.208 263.882 145.291C268.796 135.126 246.592 137.299 241.917 138.371Z" fill="black"/>
<path d="M259.208 148.523C253.974 154.548 247.872 159.77 241.434 164.463C238.591 166.535 235.691 168.605 232.679 170.421C230.882 171.505 228.578 172.114 227.321 169.995C225.96 167.707 226.003 164.907 226.289 162.346C226.583 159.723 226.834 156.871 227.443 154.309C227.699 153.227 228.045 152.167 228.49 151.149C228.714 150.631 228.963 150.121 229.235 149.627C229.443 149.252 230.103 148.555 230.148 148.151C232.621 144.553 236.314 141.931 240.461 140.61C241.029 140.429 241.643 140.337 242.197 140.134C246.584 139.125 251.227 139.073 255.687 139.501C257.24 139.65 259.526 139.619 260.852 140.412C265.082 142.946 260.95 146.518 259.208 148.523Z" fill="black"/>
<path d="M241.891 238.208C234.659 235.344 226.601 234.788 219.038 236.585C215.919 237.328 212.905 238.659 210.972 241.323C208.924 244.144 206.835 247.194 206.737 250.81C206.716 251.615 206.796 252.422 206.976 253.209C207.902 257.249 211.283 259.22 215.197 259.573C222.331 260.215 230.202 258.323 237.302 257.555C242.128 257.033 249.271 257.563 253.47 254.661C262.12 248.681 246.447 240.012 241.891 238.208Z" fill="black"/>
<path d="M251.286 253.743C247.86 255.54 242.784 255.173 239.002 255.582C234.49 256.07 229.976 256.558 225.463 257.045C221.609 257.463 216.772 258.666 212.969 257.373C210.548 256.549 208.623 254.824 208.49 252.15C208.367 249.684 209.49 247.234 210.69 245.145C211.851 243.131 212.897 240.756 215.074 239.64C217.622 238.334 220.945 237.855 223.759 237.536C227.368 237.126 231.035 237.266 234.604 237.946C238.327 238.655 241.952 239.926 245.273 241.758C248.129 243.332 258.501 249.955 251.286 253.743Z" fill="black"/>
<path d="M241.305 236.666C241.305 236.666 241.306 236.661 241.305 236.659C238.261 223.044 234.917 209.499 231.229 196.042C227.743 183.317 224.521 170.134 219.446 157.932C215.7 148.929 209.961 140.188 200.971 135.735C193.017 131.796 183.408 132.347 176.542 138.102C176.172 137.945 175.714 137.994 175.446 138.438C167.302 151.898 161.578 166.529 158.436 181.947C158.358 182.324 158.511 182.62 158.744 182.816C158.639 183.504 159.578 184.202 160.276 183.596C166.312 178.365 175.32 177.105 182.473 180.879C189.49 184.58 192.709 192.336 195.287 199.395C200.893 214.753 205.057 230.614 207.978 246.692C208.009 246.86 208.08 246.983 208.166 247.082C208.245 247.441 208.511 247.738 208.992 247.706C220.373 246.954 231.174 243.568 240.926 237.65C241.326 237.409 241.406 237.014 241.305 236.666Z" fill="black"/>
<path d="M202.537 215.785C199.947 206.967 197.391 197.551 192.945 189.447C186.368 177.462 171.565 172.947 160.422 181.208C163.547 166.555 169.018 152.636 176.731 139.782C176.989 139.843 177.274 139.809 177.528 139.589C186.566 131.748 199.388 134.802 207.411 142.492C215.242 149.998 218.846 160.514 221.971 170.625C228.678 192.32 234.454 214.3 239.424 236.456C230.281 241.881 220.24 245.064 209.638 245.863C207.783 235.722 205.443 225.68 202.537 215.785Z" fill="#FEFEFE"/>
<path d="M202.537 215.785C199.947 206.967 197.391 197.551 192.945 189.447C186.368 177.462 171.565 172.947 160.422 181.208C163.547 166.555 169.018 152.636 176.731 139.782C176.989 139.843 177.274 139.809 177.528 139.589C186.566 131.748 199.388 134.802 207.411 142.492C215.242 149.998 218.846 160.514 221.971 170.625C228.678 192.32 234.454 214.3 239.424 236.456C230.281 241.881 220.24 245.064 209.638 245.863C207.783 235.722 205.443 225.68 202.537 215.785Z" fill="#FEFEFE"/>
<path d="M222.217 171.434C222.134 171.165 222.054 170.893 221.971 170.624C218.846 160.513 215.241 149.999 207.411 142.492C199.388 134.802 186.565 131.747 177.528 139.588C177.274 139.808 176.988 139.844 176.73 139.782C169.017 152.636 163.545 166.555 160.421 181.206C170.589 173.668 183.802 176.773 191.034 186.482C190.691 180.553 193.118 174.505 198.295 170.994C205.851 165.868 214.881 167.113 222.217 171.434Z" fill="#19A89D"/>
<path d="M238.32 231.352C228.829 236.241 218.702 239.236 208.078 240.276C206.942 240.388 206.931 242.178 208.078 242.065C219.019 240.995 229.451 237.93 239.223 232.896C240.247 232.37 239.342 230.824 238.32 231.352Z" fill="black"/>
<path d="M239.979 135.411C231.625 116.985 209.904 110.437 191.249 114.764C174.866 118.562 161.716 128.711 150.031 140.363C149.929 140.359 149.822 140.366 149.704 140.407C134.447 145.756 120.904 154.741 110.081 166.755C110.06 166.778 110.056 166.802 110.036 166.827C110.031 166.836 110.027 166.847 110.02 166.857C109.735 167.267 109.845 167.739 110.14 168.032C117.496 189.413 142.228 197.545 161.381 185.883C172.122 179.343 180.015 169.079 190.87 162.708C201.489 156.474 219.169 155.025 224.675 168.92C224.73 169.059 224.81 169.167 224.902 169.256C225.106 169.835 225.824 170.217 226.321 169.623C234.256 160.142 238.897 148.731 239.832 136.417C240.051 136.16 240.153 135.796 239.979 135.411Z" fill="black"/>
<path d="M225.893 167.316C222.294 159.774 214.083 155.983 205.836 156.127C194.772 156.321 185.386 163.675 177.459 170.645C167.297 179.579 156.87 189.782 142.389 189.728C128.375 189.675 116.332 180.597 111.837 167.489C121.661 156.748 133.671 148.494 147.203 143.235C143.179 147.403 139.317 151.705 135.545 155.936C134.78 156.793 136.041 158.063 136.809 157.201C151.068 141.216 166.292 124.285 187.39 117.673C206.141 111.795 229.139 116.79 238.149 135.732C238.119 135.812 238.086 135.887 238.079 135.984C237.288 147.508 233.078 158.314 225.893 167.316Z" fill="#FEFEFE"/>
<path d="M233.426 129.2C232.432 138.26 229.822 146.91 225.725 154.93C217.611 150.306 208.021 148.743 198.903 151.056C188.872 153.602 180.953 160.68 173.42 167.388C164.426 175.398 154.046 184.366 141.152 183.619C128.709 182.898 122.208 171.86 116.956 162.012C116.414 160.995 114.869 161.898 115.411 162.915C119.703 170.966 124.646 179.871 133.448 183.654C142.795 187.67 153.405 184.431 161.552 179.193C171.339 172.9 178.809 163.629 188.707 157.487C199.936 150.52 213.385 149.943 224.891 156.52C223.814 158.511 222.643 160.461 221.381 162.366C220.743 163.329 222.293 164.227 222.926 163.269C229.738 152.989 233.87 141.456 235.215 129.2C235.341 128.057 233.55 128.066 233.426 129.2Z" fill="black"/>
<path d="M125.256 75.1627C124.422 72.2307 121.914 69.7207 118.653 70.571C115.373 71.4257 113.627 74.9294 114.664 78.1013C115.665 81.163 119.071 83.1993 122.23 82.1776C125.317 81.1801 126.056 77.9772 125.256 75.1627Z" fill="black"/>
<path d="M120.981 80.3363C118.987 80.583 117.147 79.2111 116.58 77.3308C115.908 75.0897 117.416 72.8552 119.756 72.6333C123.835 72.2461 125.353 79.7958 120.981 80.3363Z" fill="#FEFEFE"/>
<path d="M164.603 64.7143C163.769 61.7824 161.263 59.2734 158.001 60.1238C154.722 60.9783 152.975 64.481 154.012 67.6529C155.013 70.7147 158.418 72.75 161.578 71.7292C164.665 70.7318 165.403 67.5288 164.603 64.7143Z" fill="black"/>
<path d="M160.329 69.889C158.334 70.1359 156.493 68.7639 155.928 66.8835C155.255 64.6425 156.764 62.4079 159.104 62.186C163.183 61.7988 164.7 69.3487 160.329 69.889Z" fill="#FEFEFE"/>
<path d="M144.399 81.505C139.759 77.3269 133.283 77.6164 128.1 80.5626C127.637 80.8256 127.631 81.2723 127.848 81.6206C127.818 81.6903 127.781 81.7529 127.768 81.839C126.836 87.842 127.285 95.0713 132.908 98.7377C137.527 101.749 143.873 100.263 146.723 95.5787C149.55 90.929 148.367 85.0777 144.399 81.505Z" fill="black"/>
<path d="M145.16 94.6303C142.174 99.3704 135.483 99.8261 131.868 95.4298C128.782 91.678 128.824 86.6692 129.531 82.1155C129.549 82.0025 129.534 81.9035 129.516 81.8072C133.602 79.6224 138.625 79.3386 142.473 82.2295C146.306 85.1084 147.804 90.4334 145.16 94.6303Z" fill="#19A89D"/>
<path d="M154.844 47.1883C149.88 38.8315 139.136 35.9592 130.497 40.3061C125.307 42.9181 121.52 47.5735 119.764 53.0899C118.558 56.8838 118.478 60.9388 118.784 64.8755C119.076 68.6286 119.452 72.641 120.653 76.2268C122.771 82.5508 127.552 87.7132 133.938 89.8088C143.097 92.8118 153.518 88.3942 157.108 79.2897C158.954 74.605 158.965 69.3931 158.806 64.435C158.614 58.5023 157.933 52.3871 154.844 47.1883Z" fill="black"/>
<path d="M156.866 61.2975C157.682 72.3374 156.472 86.0044 143.316 88.6901C137.393 89.899 131.525 87.8944 127.407 83.508C121.756 77.4875 119.776 67.2217 120.439 59.1893C120.675 56.3248 121.382 53.4869 122.601 50.8814C125.123 45.4952 129.847 41.509 135.726 40.3577C149.125 37.7349 156.006 49.6939 156.866 61.2975Z" fill="#FEFEFE"/>
<path d="M156.866 61.2975C157.682 72.3374 156.472 86.0044 143.316 88.6901C137.393 89.899 131.525 87.8944 127.407 83.508C121.756 77.4875 119.776 67.2217 120.439 59.1893C120.675 56.3248 121.382 53.4869 122.601 50.8814C125.123 45.4952 129.847 41.509 135.726 40.3577C149.125 37.7349 156.006 49.6939 156.866 61.2975Z" fill="#FEFEFE"/>
<path d="M135.743 40.3533C129.859 41.5031 125.132 45.4859 122.608 50.8677C121.388 53.4705 120.679 56.3056 120.443 59.1673C120.101 63.3087 120.471 68.0406 121.68 72.4807C125.588 69.3805 128.607 65.5727 130.767 61.0552C132.992 63.9011 136.068 66.853 139.941 65.7664C142.268 65.1132 143.527 63.1474 143.406 61.0828C147.602 63.4359 152.284 65.4595 157.065 64.1968C157.031 63.2096 156.977 62.2314 156.907 61.2747C156.046 49.6826 149.154 37.7341 135.743 40.3533Z" fill="#19A89D"/>
<path d="M160.679 40.9699C156.46 35.1389 147.598 34.5544 140.757 34.364C141.605 33.5125 142.167 32.4498 141.758 31.1713C141.067 29.017 139.024 29.2907 137.283 29.9176C130.694 32.2901 125.428 37.4882 122.211 43.5987C118.115 44.634 115.556 50.4013 114.673 53.9224C113.108 60.1774 114.916 66.4174 119 71.2899C119.234 71.5674 119.537 71.6531 119.821 71.6107C120.054 72.205 120.864 72.559 121.327 71.8905C125.128 66.3998 127.544 60.1605 128.008 53.4668C128.017 53.3446 128.024 53.21 128.033 53.0822C129.969 56.9254 133.023 59.9849 137.082 62.054C137.692 62.3656 138.434 61.782 138.344 61.1281C138.024 58.781 137.389 56.6251 136.428 54.57C142.537 58.0701 149.204 60.1261 156.313 60.6405C156.664 60.898 157.147 60.921 157.448 60.4468C161.002 54.8744 165.236 47.2668 160.679 40.9699Z" fill="black"/>
<path d="M125.25 59.0498C124.277 63.0317 122.558 66.6929 120.306 70.0918C117.664 66.8847 115.97 63.1084 115.854 58.9044C115.786 56.4239 116.303 53.9561 117.271 51.6809C117.918 50.1623 122.692 41.0025 126.061 47.8543C126.14 48.0136 126.206 48.1847 126.265 48.3658C126.318 48.5808 126.376 48.7918 126.433 49.004C127.02 51.9442 125.83 56.6778 125.25 59.0498Z" fill="black"/>
<path d="M156.362 58.832C148.454 58.2185 141.125 55.7206 134.524 51.2737C133.68 50.7052 132.652 51.6423 133.238 52.5213C134.716 54.7395 135.678 56.9877 136.233 59.4899C132.092 56.8803 129.257 52.9422 128.102 48.0685C128.067 47.9148 127.998 47.79 127.913 47.6853C127.524 45.5895 126.556 43.821 124.347 43.4824C126.094 40.4018 128.329 37.6956 131.139 35.4868C132.604 34.3357 134.177 33.3494 135.845 32.5193C136.312 32.287 137.456 31.5334 137.977 31.5955C139.104 31.7298 139.108 33.5331 137.947 34.2601C137.423 34.5891 137.492 35.1426 137.813 35.5052C137.868 35.8248 138.098 36.0857 138.536 36.0978C144.213 36.2392 150.327 36.3243 155.475 39.0383C164.095 43.5823 160.306 52.5067 156.362 58.832Z" fill="black"/>
<path d="M137.715 74.2514C136.839 74.9586 135.803 75.3127 134.672 75.2083C133.531 75.1017 133.247 76.8621 134.394 76.9692C135.993 77.1168 137.532 76.6935 138.785 75.6801C139.677 74.9597 138.612 73.527 137.715 74.2514Z" fill="black"/>
<path d="M152.097 69.6349C151.483 70.331 150.599 70.5426 149.712 70.332C148.591 70.0668 148.32 71.8295 149.434 72.0934C150.946 72.4527 152.482 71.8958 153.495 70.7459C154.257 69.8835 152.856 68.7751 152.097 69.6349Z" fill="black"/>
<path d="M145.391 70.5723C144.702 69.6529 143.271 70.7213 143.964 71.6437C145.136 73.2092 145.636 75.04 145.398 76.9855C145.258 78.1273 147.017 78.4075 147.159 77.2643C147.455 74.8484 146.85 72.5187 145.391 70.5723Z" fill="black"/>
<path d="M133.323 131.984C132.878 118.817 130.709 105.753 127.747 92.9353C127.235 90.719 126.784 88.4799 126.219 86.2762C126.073 85.7067 125.911 85.1327 125.607 84.6293C124.732 83.1852 122.586 82.8777 121.151 82.2673C119.259 81.4644 117.276 80.8198 115.235 80.5453C111.208 80.0043 107.391 81.2639 105.1 84.7546C104.702 85.3605 104.361 86.0028 104.066 86.6634C101.865 91.5902 101.789 97.6924 101.785 102.976C101.779 109.356 102.533 115.749 104.022 121.953C106.178 130.939 110.025 144.734 120.632 146.862C130.175 148.775 133.588 139.865 133.323 131.984Z" fill="black"/>
<path d="M130.302 140.557C126.384 148.958 116.486 144.731 112.516 138.878C105.927 129.167 103.693 115.278 103.573 103.799C103.515 98.2255 103.362 91.2851 106.233 86.3002C110.405 79.0535 118.556 82.5202 124.181 85.7775C124.187 85.8128 124.177 85.8412 124.187 85.8777C127.471 98.7141 129.802 111.763 131.017 124.962C131.474 129.922 132.486 135.873 130.302 140.557Z" fill="#19A89D"/>
<path d="M138.38 83.3197C138.514 82.3676 138.018 81.3334 136.895 80.9052C136.663 80.8175 136.431 80.7697 136.199 80.7424C136.444 79.5955 135.865 78.5067 134.145 78.2391C133.349 78.1138 132.542 78.1537 131.745 78.2972C132.152 77.3883 132.157 76.4066 131.233 75.5467C129.287 73.7371 126.555 75.8463 125.213 77.3086C121.418 81.4394 121.173 87.152 123.745 91.6381C120.136 105.223 109.754 116.768 110.045 131.266C109.953 131.4 109.889 131.562 109.906 131.778C110.343 137.286 112.693 142.817 117.838 145.46C122.786 148.002 128.678 146.996 132.247 142.692C136.496 137.571 136.729 130.046 137.299 123.724C138.139 114.397 138.205 105.035 137.625 95.6891C138.986 94.9899 139.386 93.4421 139.482 91.8739C139.558 90.6017 139.476 89.8899 140.356 88.7875C140.663 88.4025 141.062 88.1019 141.354 87.7021C141.857 87.0165 142.282 86.2022 142.165 85.3241C141.914 83.4039 139.995 82.9541 138.38 83.3197Z" fill="black"/>
<path d="M139.852 86.6805C139.623 86.9823 139.369 87.2636 139.092 87.5233C138.567 88.1463 138.103 88.7419 137.887 89.5483C137.526 90.9001 138.267 93.8225 136.38 94.2496C135.761 94.3897 135.641 94.9705 135.833 95.4272C135.833 95.4477 135.824 95.4625 135.825 95.4841C136.571 107.3 136.399 119.295 134.685 131.027C133.82 136.945 131.575 144.424 124.469 144.985C117.289 145.551 112.871 139.566 111.865 133.172C111.895 133.075 111.917 132.971 111.907 132.848C110.837 118.351 121.04 106.822 125.067 93.5355C125.526 94.0844 126.023 94.6106 126.581 95.0924C127.448 95.8418 128.72 94.5821 127.846 93.8271C125.105 91.4548 123.516 88.3513 123.844 84.6488C123.987 83.0429 124.435 81.6022 125.278 80.2014C125.698 79.444 126.226 78.763 126.86 78.1571C130.303 75.762 130.769 78.1434 128.654 79.4474C127.852 79.9019 127.106 80.4406 126.466 81.0351C125.622 81.822 126.89 83.0851 127.731 82.3004C128.826 81.2822 130.078 80.5567 131.538 80.2037C132.095 80.0693 132.995 79.8233 133.582 79.9782C134.256 79.8631 134.498 80.157 134.309 80.8631C134.17 81.0123 134.011 81.141 133.855 81.2719C133.784 81.3095 133.711 81.3437 133.642 81.3824C132.105 82.2366 130.67 83.3481 129.207 84.3253C128.255 84.9631 129.151 86.5131 130.111 85.8708C131.18 85.1556 132.247 84.4392 133.316 83.7263C133.718 83.4575 134.123 83.1648 134.545 82.9279C134.906 82.6921 135.3 82.5486 135.727 82.4974C136.271 82.4086 137.742 82.5691 135.954 84.3378C134.439 85.2273 133.083 86.4789 132.001 87.7465C131.257 88.6178 132.518 89.8888 133.266 89.0118C134.239 87.8707 135.314 86.8684 136.602 86.086C137.086 85.7922 137.996 85.118 138.585 85.1054C140.203 85.4824 140.627 86.0086 139.852 86.6805Z" fill="#FEFEFE"/>
<path d="M76.283 259.015L76.2534 150.304C76.2523 147.543 78.5107 145.283 81.2725 145.282C84.0343 145.281 86.2939 147.539 86.295 150.301L86.3246 259.011C86.3258 261.773 84.0673 264.033 81.3055 264.034C78.5437 264.035 76.283 261.777 76.283 259.015Z" fill="#FEFEFE"/>
<path d="M86.295 150.302C86.295 149.402 86.0513 148.559 85.6322 147.825C82.7633 147.708 79.8694 147.71 77.0222 147.651C76.5381 148.423 76.2523 149.331 76.2534 150.306L76.258 167.602C79.6234 167.243 82.9706 166.76 86.2996 166.171L86.295 150.302Z" fill="#19A89D"/>
<path d="M76.283 260.869L76.2534 152.159C76.2523 149.397 78.5107 147.136 81.2725 147.136C84.0343 147.135 86.2939 149.394 86.295 152.155L86.3246 260.866C86.3258 263.627 84.0673 265.887 81.3055 265.888C78.5437 265.889 76.283 263.631 76.283 260.869Z" stroke="black" stroke-width="0.569444" stroke-miterlimit="10"/>
<path d="M143.48 155.325H19.0972C16.3354 155.325 14.0758 153.066 14.0758 150.305C14.0758 147.542 16.3354 145.283 19.0972 145.283H143.48C146.243 145.283 148.501 147.542 148.501 150.305C148.501 153.066 146.243 155.325 143.48 155.325Z" fill="black"/>
<path d="M143.48 155.325H19.0972C16.3354 155.325 14.0758 153.066 14.0758 150.305C14.0758 147.542 16.3354 145.283 19.0972 145.283H143.48C146.243 145.283 148.501 147.542 148.501 150.305C148.501 153.066 146.243 155.325 143.48 155.325Z" stroke="black" stroke-width="0.569444" stroke-miterlimit="10"/>
<path d="M81.2896 259.949C53.8925 259.949 31.683 263.516 31.683 267.916H130.896C130.896 263.516 108.687 259.949 81.2896 259.949Z" fill="black"/>
<path d="M81.2896 259.949C53.8925 259.949 31.683 263.516 31.683 267.916H130.896C130.896 263.516 108.687 259.949 81.2896 259.949Z" stroke="black" stroke-width="0.569444" stroke-miterlimit="10"/>
<path d="M108.33 143.143L107.403 138.473C107.358 138.252 107.229 138.09 107.113 137.983C106.886 137.782 106.678 137.699 106.451 137.614C106.057 137.474 105.589 137.375 105.011 137.281C103.293 137.007 100.626 136.838 97.6463 136.837H26.6138C24.2267 136.838 22.0799 136.948 20.49 137.131C19.6916 137.224 19.039 137.331 18.5243 137.473C18.2635 137.544 18.0391 137.618 17.8102 137.747C17.6963 137.812 17.5756 137.893 17.4605 138.023C17.3467 138.149 17.2396 138.351 17.2407 138.576L17.2544 138.727L18.1826 143.395C18.227 143.616 18.3546 143.78 18.4719 143.887C18.6985 144.086 18.9069 144.169 19.1336 144.256C19.5265 144.395 19.9946 144.494 20.5731 144.587C22.2917 144.861 24.959 145.03 27.9383 145.031H98.9708C101.357 145.031 103.506 144.922 105.095 144.738C105.893 144.644 106.547 144.538 107.061 144.397C107.321 144.324 107.547 144.25 107.776 144.121C107.888 144.057 108.009 143.976 108.124 143.846C108.238 143.719 108.346 143.518 108.345 143.291L108.33 143.143Z" fill="black"/>
<path d="M98.9708 143.509H27.9383C25.5865 143.51 23.4237 143.396 21.8714 143.222C21.097 143.135 20.4706 143.029 20.0856 142.929C20.0071 142.91 19.9478 142.89 19.892 142.871L19.1062 138.91C19.2531 138.871 19.4433 138.828 19.6643 138.789C21.0537 138.539 23.6561 138.357 26.6138 138.358H97.6463C99.9969 138.358 102.161 138.469 103.713 138.645C104.488 138.732 105.114 138.837 105.498 138.937C105.576 138.957 105.637 138.977 105.69 138.994L106.478 142.957C106.331 142.995 106.141 143.039 105.92 143.077C104.531 143.329 101.928 143.511 98.9708 143.509Z" fill="#19A89D"/>
<path d="M87.9965 132.589L78.1269 96.1731C77.4846 93.8168 76.02 91.7235 74.167 90.1974C72.3129 88.6747 70.0533 87.7021 67.7607 87.6975H7.28803C5.3952 87.6941 3.74153 88.39 2.59922 89.5847C1.45236 90.7771 0.825972 92.4353 0.828253 94.2678C0.828253 95.032 0.935306 95.8292 1.15625 96.6424L11.0247 133.057C11.6659 135.414 13.1317 137.507 14.9858 139.033C16.8387 140.556 19.0994 141.529 21.392 141.533H81.8636C83.7564 141.536 85.4101 140.84 86.5524 139.645C87.6993 138.453 88.3257 136.795 88.3234 134.964C88.3234 134.198 88.2163 133.402 87.9965 132.589Z" fill="black"/>
<path d="M85.262 138.405C84.4636 139.231 83.3327 139.738 81.8647 139.742H21.392C19.6221 139.747 17.7111 138.961 16.1212 137.65C14.5302 136.344 13.2751 134.53 12.7524 132.589L2.88389 96.173C2.70167 95.5033 2.61853 94.8633 2.61853 94.2665C2.62081 92.8326 3.09572 91.6539 3.89067 90.8248C4.68903 89.9991 5.81881 89.4911 7.28684 89.4866H67.7607C69.5305 89.4832 71.4393 90.2679 73.0303 91.5787C74.6214 92.885 75.8764 94.7004 76.4003 96.6411L86.2688 133.057C86.4499 133.727 86.5341 134.366 86.5341 134.964C86.5319 136.396 86.057 137.575 85.262 138.405Z" fill="#FEFEFE"/>
<path d="M81.498 138.477C80.7418 139.258 79.6713 139.738 78.2807 139.741H21.0185C19.3432 139.746 17.5335 139.003 16.0279 137.764C14.52 136.528 13.3321 134.813 12.8367 132.979L3.49327 98.5511C3.32016 97.9178 3.24158 97.3131 3.24158 96.7482C3.24385 95.3929 3.69372 94.278 4.44652 93.4944C5.20274 92.7143 6.27216 92.2337 7.66274 92.2302H64.9249C66.6014 92.2268 68.4088 92.9694 69.9144 94.2073C71.4212 95.443 72.609 97.1582 73.1056 98.9941L82.4501 133.422C82.621 134.054 82.7019 134.658 82.7019 135.223C82.6996 136.579 82.2508 137.695 81.498 138.477Z" fill="#19A89D"/>
</svg>
